<svg id="Layer_1" data-name="Layer 1" xmlns="http://www.w3.org/2000/svg" xmlns:xlink="http://www.w3.org/1999/xlink" width="179.21mm" height="307.01mm" viewBox="0 0 508 870.26"><defs><style>.cls-1,.cls-37,.cls-40,.cls-7{fill:none;}.cls-2{fill:#2f2224;}.cls-3{fill:#48393c;}.cls-4{fill:#615658;}.cls-5{fill:#268a43;}.cls-6{fill:#d2e5e5;}.cls-7{stroke:#615658;stroke-width:9px;}.cls-40,.cls-7{stroke-linecap:round;}.cls-37,.cls-7{stroke-miterlimit:10;}.cls-8{fill:#f8cf71;}.cls-9{fill:#f6be4f;}.cls-10{fill:#885b52;}.cls-11{fill:#9c6b5e;}.cls-12{fill:#b5816f;}.cls-13{fill:#aa786b;}.cls-14{fill:#764b44;}.cls-15{fill:#885b54;}.cls-16{fill:#7dcdd1;}.cls-17{fill:#348dc6;}.cls-18{fill:#d0e6ea;}.cls-19{fill:#bcbcbc;}.cls-20,.cls-31{fill:#fff;}.cls-21{fill:#eff3f4;}.cls-22{fill:#d7dee0;}.cls-23{fill:#9fa1a3;}.cls-24{fill:#ffdc97;}.cls-25{fill:#d82d2a;}.cls-26{fill:#4c6cb4;}.cls-27{fill:#f48fa0;}.cls-28{fill:#ffcc38;}.cls-29{fill:#bad97b;}.cls-30{fill:#dfb3d4;}.cls-31{opacity:0.7;}.cls-32{fill:#f68d46;}.cls-33{fill:#eff8f8;}.cls-34{fill:#fbfdfe;}.cls-35{fill:#d6d6d6;}.cls-36{fill:#e5e5e5;}.cls-37{stroke:#939393;}.cls-38{clip-path:url(#clip-path);}.cls-39{fill:#f1f0ef;}.cls-40{stroke:#b7b7b7;stroke-linejoin:round;stroke-width:0.75px;}.cls-41{fill:#727373;}.cls-42{clip-path:url(#clip-path-2);}.cls-43{fill:#fedeca;}.cls-44{fill:#e78128;}.cls-45{fill:#f5c04b;}.cls-46{fill:#e5aa32;}.cls-47{fill:#e9bb98;}.cls-48{fill:#91908e;}.cls-49{fill:#9f9f9e;}.cls-50{fill:#a8a7a3;}.cls-51{fill:#f4d9c3;}</style><clipPath id="clip-path"><rect class="cls-1" x="295.85" y="628.18" width="120.16" height="219.71"/></clipPath><clipPath id="clip-path-2"><rect class="cls-1" x="392.64" y="615.32" width="23.36" height="28.85"/></clipPath></defs><title>Imagery</title><rect class="cls-2" x="13.5" y="14" width="481" height="852"/><rect class="cls-3" width="508" height="18"/><rect class="cls-3" x="14" y="114" width="481" height="89"/><rect class="cls-3" y="105" width="508" height="18"/><rect class="cls-4" x="5.75" y="123" width="496.5" height="8"/><rect class="cls-4" x="5.75" y="199" width="496.5" height="8"/><rect class="cls-3" x="13.5" y="794" width="481" height="72"/><rect class="cls-4" x="5.75" y="790" width="496.5" height="8"/><rect class="cls-4" x="5.75" y="862" width="496.5" height="8"/><rect class="cls-5" x="77" y="123" width="354" height="747"/><rect class="cls-6" x="89.5" y="134" width="329" height="60"/><rect class="cls-2" x="21.5" y="143.5" width="48" height="43" transform="translate(210.5 119.5) rotate(90)"/><rect class="cls-2" x="438.5" y="143.5" width="48" height="43" transform="translate(627.5 -297.5) rotate(90)"/><rect class="cls-2" x="21.5" y="808.5" width="48" height="43" transform="translate(875.5 784.5) rotate(90)"/><rect class="cls-2" x="438.5" y="808.5" width="48" height="43" transform="translate(1292.5 367.5) rotate(90)"/><line class="cls-7" x1="32.5" y1="29.5" x2="32.5" y2="92.5"/><line class="cls-7" x1="72.77" y1="29.5" x2="72.77" y2="92.5"/><line class="cls-7" x1="113.05" y1="29.5" x2="113.05" y2="92.5"/><line class="cls-7" x1="153.32" y1="29.5" x2="153.32" y2="92.5"/><line class="cls-7" x1="193.59" y1="29.5" x2="193.59" y2="92.5"/><line class="cls-7" x1="233.86" y1="29.5" x2="233.86" y2="92.5"/><line class="cls-7" x1="274.14" y1="29.5" x2="274.14" y2="92.5"/><line class="cls-7" x1="314.41" y1="29.5" x2="314.41" y2="92.5"/><line class="cls-7" x1="354.68" y1="29.5" x2="354.68" y2="92.5"/><line class="cls-7" x1="394.95" y1="29.5" x2="394.95" y2="92.5"/><line class="cls-7" x1="435.23" y1="29.5" x2="435.23" y2="92.5"/><line class="cls-7" x1="475.5" y1="29.5" x2="475.5" y2="92.5"/><rect class="cls-8" x="92" y="217" width="324" height="653"/><polygon class="cls-9" points="373.87 788 416 789.43 416 217 92 217 92 256.29 364 281 373.87 788"/><rect class="cls-10" x="92" y="773" width="324" height="18"/><rect class="cls-11" x="92" y="779" width="324" height="22"/><rect class="cls-12" x="92" y="801" width="324" height="69"/><polygon class="cls-13" points="416 870 416 791 381.39 791 382.55 801 416 870"/><polygon class="cls-14" points="416 773 373.31 773 380 779 381.86 795 416 795 416 773"/><polygon class="cls-15" points="416 779 380 779 382.55 801 416 801 416 779"/><rect class="cls-16" x="92.01" y="217" width="324" height="653"/><rect class="cls-17" x="92.01" y="780.25" width="324" height="89.75"/><path class="cls-18" d="M416,236v-2H363V217h-2v17H309V217h-2v17H255V217h-2v17H201V217h-2v17H147V217h-2v17H92v2h53v49.2H92v2h53v49.21H92v2h53v49.2H92v2h53v49.21H92v2h53V490H92v2h53v49.21H92v2h53v49.2H92v2h53v49.2H92v2h53v49.21H92v2h53V746H92v2h53v32.21h2V748h52v32.21h2V748h52v32.21h2V748h52v32.21h2V748h52v32.21h2V748h53v-2H363v-49.2h53v-2H363V645.63h53v-2H363v-49.2h53v-2H363v-49.2h53v-2H363V492h53v-2H363v-49.2h53v-2H363V389.61h53v-2H363v-49.2h53v-2H363V287.2h53v-2H363V236Zm-109,0v49.2H255V236ZM253,338.41v49.2H201v-49.2Zm-52-2V287.2h52v49.21Zm52,53.2v49.21H201V389.61Zm0,51.21V490H201v-49.2Zm0,51.2v49.21H201V492Zm0,51.21v49.2H201v-49.2Zm0,51.2v49.2H201v-49.2Zm0,51.2v49.21H201V645.63Zm2,0h52v49.21H255Zm0-2v-49.2h52v49.2Zm0-51.2v-49.2h52v49.2Zm0-51.2V492h52v49.21ZM255,490v-49.2h52V490Zm0-51.2V389.61h52v49.21Zm0-51.21v-49.2h52v49.2Zm0-51.2V287.2h52v49.21ZM253,236v49.2H201V236Zm-106,0h52v49.2H147Zm0,51.2h52v49.21H147Zm0,51.21h52v49.2H147Zm0,51.2h52v49.21H147Zm0,51.21h52V490H147Zm0,51.2h52v49.21H147Zm0,51.21h52v49.2H147Zm0,51.2h52v49.2H147Zm0,51.2h52v49.21H147ZM147,746v-49.2h52V746Zm54,0v-49.2h52V746Zm54,0v-49.2h52V746Zm106,0H309v-49.2h52Zm0-51.2H309V645.63h52Zm0-51.21H309v-49.2h52Zm0-51.2H309v-49.2h52Zm0-51.2H309V492h52ZM361,490H309v-49.2h52Zm0-51.2H309V389.61h52Zm0-51.21H309v-49.2h52Zm0-51.2H309V287.2h52Zm0-51.21H309V236h52Z"/><rect class="cls-19" x="92.01" y="771.02" width="324" height="5.93"/><rect class="cls-20" x="92.01" y="773" width="324" height="7.25"/><path class="cls-21" d="M218.71,661.53h-24s-3.06,119.17-21.44,146.13h66.9C221.78,780.7,218.71,661.53,218.71,661.53Z"/><path class="cls-20" d="M206.71,669.37c40.72,0,74.21-31.17,78.21-52.08H128.49C132.49,638.2,166,669.37,206.71,669.37Z"/><path class="cls-22" d="M128.49,617.29a34.79,34.79,0,0,0,3.2,8.94h150a34.74,34.74,0,0,0,3.19-8.94Z"/><rect class="cls-23" x="177.02" y="603.41" width="2.81" height="9.41" rx="1.4"/><rect class="cls-24" x="176.3" y="595.73" width="4.24" height="16.38" rx="2.12" transform="translate(479.29 50.72) rotate(45)"/><rect class="cls-24" x="176.3" y="595.73" width="4.24" height="16.38" rx="2.12" transform="translate(731.63 904.79) rotate(135)"/><circle class="cls-25" cx="178.43" cy="603.92" r="2.5"/><rect class="cls-23" x="233.61" y="603.41" width="2.81" height="9.41" rx="1.4"/><rect class="cls-24" x="232.87" y="595.73" width="4.24" height="16.38" rx="2.12" transform="translate(495.86 10.72) rotate(45)"/><rect class="cls-24" x="232.87" y="595.73" width="4.24" height="16.38" rx="2.12" transform="translate(828.19 864.79) rotate(135)"/><circle class="cls-26" cx="234.99" cy="603.92" r="2.5"/><rect class="cls-21" x="124.63" y="611.95" width="164.15" height="10.45" rx="5.22"/><rect class="cls-23" x="197.96" y="608.76" width="17.49" height="3.19" rx="1.6"/><path class="cls-21" d="M209.59,607.37V577.55c0-11.56,4.95-21,16.51-21,11,0,15.6,8.48,16.48,19.23h5.66C247.34,562,240.18,551,226.1,551c-14.67,0-22.15,11.93-22.15,26.6v29.82c0,.29,0,.58,0,.87h5.65C209.61,608,209.59,607.66,209.59,607.37Z"/><rect class="cls-23" x="200.29" y="606.41" width="12.84" height="3.64" rx="1.17"/><rect class="cls-23" x="241.88" y="574.54" width="7.37" height="3.19" rx="1.04"/><rect class="cls-27" x="257.55" y="602.23" width="16.55" height="5.88" rx="2.94"/><rect class="cls-28" x="254.36" y="607.25" width="22.94" height="4.7"/><rect class="cls-20" x="139.02" y="558.57" width="4.34" height="10.78" transform="translate(-58.12 17.83) rotate(-5.99)"/><rect class="cls-29" x="135.03" y="557.16" width="5.44" height="14.45" rx="2.5" transform="translate(-58.18 17.47) rotate(-5.99)"/><path class="cls-29" d="M142.81,611.94h0A1.61,1.61,0,0,1,141,610.5l-4.47-41.92a1.61,1.61,0,0,1,1.43-1.77h0a1.62,1.62,0,0,1,1.78,1.44l4.47,41.92A1.62,1.62,0,0,1,142.81,611.94Z"/><rect class="cls-20" x="150.39" y="567" width="3.34" height="8.28" transform="matrix(-0.81, -0.58, 0.58, -0.81, -57.82, 1123.65)"/><rect class="cls-30" x="152.11" y="567.18" width="4.18" height="11.1" rx="1.92" transform="translate(-54.87 1127.78) rotate(-144.29)"/><rect class="cls-30" x="143.5" y="571.55" width="2.48" height="28.67" rx="1.24" transform="translate(-79.7 1146.11) rotate(-144.29)"/><polygon class="cls-31" points="153.08 611.95 137.07 611.95 134.34 575.86 155.62 575.86 153.08 611.95"/><rect class="cls-32" x="120.65" y="322.66" width="172.12" height="213.04" rx="5.53"/><rect class="cls-33" x="108.69" y="351.62" width="196.03" height="155.11" transform="translate(635.89 222.47) rotate(90)"/><polygon class="cls-34" points="215.19 331.16 129.15 403.98 129.15 426.82 242.17 331.16 215.19 331.16"/><polygon class="cls-34" points="284.26 372.93 129.15 504.21 129.15 511.96 284.26 380.69 284.26 372.93"/><polygon class="cls-34" points="284.26 331.16 254.02 331.16 129.15 436.85 129.15 482.83 284.26 351.55 284.26 331.16"/><rect class="cls-35" x="91.99" y="734.6" width="42.34" height="73.06"/><rect class="cls-36" x="91.99" y="734.6" width="42.34" height="11.09"/><line class="cls-37" x1="91.99" y1="745.69" x2="134.33" y2="745.69"/><g class="cls-38"><polygon class="cls-39" points="316.95 636.9 316.95 784.04 316.95 790.65 316.95 807.7 326.69 807.7 326.69 790.65 433.14 790.65 433.14 807.7 442.88 807.7 442.88 790.65 442.88 784.04 442.88 636.9 316.95 636.9"/><rect class="cls-40" x="324.74" y="641.94" width="110.36" height="31.57"/><rect class="cls-40" x="324.74" y="678.21" width="110.36" height="51.4"/><rect class="cls-40" x="324.74" y="734.3" width="110.36" height="51.4"/><rect class="cls-41" x="367.91" y="655.97" width="24" height="3.52"/><rect class="cls-41" x="367.91" y="702.15" width="24" height="3.52"/><rect class="cls-41" x="367.91" y="758.24" width="24" height="3.52"/></g><g class="cls-42"><path class="cls-43" d="M399.26,626.37a10.58,10.58,0,0,0,10.55,10.55h0a10.59,10.59,0,0,0,10.56-10.55v-2.72H399.26Z"/><rect class="cls-44" x="399.26" y="619.39" width="21.11" height="4.26"/></g><path class="cls-45" d="M392.44,605.38a3.51,3.51,0,0,0-3.5-3.51H327.32a3.51,3.51,0,0,0-3.5,3.51,3.47,3.47,0,0,0,1.37,2.76h65.88A3.47,3.47,0,0,0,392.44,605.38Z"/><path class="cls-45" d="M323.82,612.4a3.49,3.49,0,0,0,1.37,2.76h65.88a3.48,3.48,0,0,0-.3-5.74H325.49A3.5,3.5,0,0,0,323.82,612.4Z"/><path class="cls-45" d="M323.82,619.41a3.49,3.49,0,0,0,1.37,2.76h65.88a3.48,3.48,0,0,0-.3-5.74H325.49A3.5,3.5,0,0,0,323.82,619.41Z"/><path class="cls-45" d="M323.82,626.42a3.51,3.51,0,0,0,1.37,2.77h65.88a3.48,3.48,0,0,0-.3-5.74H325.49A3.5,3.5,0,0,0,323.82,626.42Z"/><path class="cls-45" d="M323.82,633.44a3.49,3.49,0,0,0,1.37,2.76h65.88a3.48,3.48,0,0,0-.3-5.74H325.49A3.5,3.5,0,0,0,323.82,633.44Z"/><path class="cls-46" d="M388.94,608.89a3.49,3.49,0,0,0,2.13-.75H325.19a3.49,3.49,0,0,0,2.13.75Z"/><path class="cls-46" d="M327.32,608.89a3.49,3.49,0,0,0-1.83.53h65.28a3.49,3.49,0,0,0-1.83-.53Z"/><path class="cls-46" d="M327.32,615.9h61.62a3.48,3.48,0,0,0,2.13-.74H325.19A3.48,3.48,0,0,0,327.32,615.9Z"/><path class="cls-46" d="M327.32,615.9a3.49,3.49,0,0,0-1.83.53h65.28a3.49,3.49,0,0,0-1.83-.53Z"/><path class="cls-46" d="M327.32,622.92h61.62a3.49,3.49,0,0,0,2.13-.75H325.19A3.49,3.49,0,0,0,327.32,622.92Z"/><path class="cls-46" d="M327.32,622.92a3.49,3.49,0,0,0-1.83.53h65.28a3.49,3.49,0,0,0-1.83-.53Z"/><path class="cls-46" d="M327.32,629.93h61.62a3.48,3.48,0,0,0,2.13-.74H325.19A3.48,3.48,0,0,0,327.32,629.93Z"/><path class="cls-46" d="M327.32,629.93a3.49,3.49,0,0,0-1.83.53h65.28a3.49,3.49,0,0,0-1.83-.53Z"/><path class="cls-45" d="M327.32,636.94h61.62a3.48,3.48,0,0,0,2.13-.74H325.19A3.48,3.48,0,0,0,327.32,636.94Z"/><rect class="cls-47" x="336.75" y="348.86" width="33.18" height="9.92" rx="4.96"/><circle class="cls-48" cx="353.34" cy="355.02" r="3.76"/><rect class="cls-49" x="352.1" y="355.02" width="2.48" height="10.69"/><path class="cls-50" d="M358.64,368.53a5.13,5.13,0,0,0-10.26,0v2.18h10.26Z"/><path class="cls-51" d="M353.51,369.13c-8.92,0-16.26,12.23-17.1,27.87h34.2C369.77,381.36,362.43,369.13,353.51,369.13Z"/></svg>