<svg id="Layer_1" data-name="Layer 1" xmlns="http://www.w3.org/2000/svg" xmlns:xlink="http://www.w3.org/1999/xlink" width="179.21mm" height="307.01mm" viewBox="0 0 508 870.26"><defs><style>.cls-1,.cls-7{fill:none;}.cls-2{fill:#2f2224;}.cls-3{fill:#48393c;}.cls-4{fill:#615658;}.cls-5{fill:#138481;}.cls-6{fill:#fce5a7;}.cls-7{stroke:#615658;stroke-linecap:round;stroke-miterlimit:10;stroke-width:9px;}.cls-8{fill:#e8d192;}.cls-9{fill:#a53f58;}.cls-10{fill:#c6c6c5;}.cls-11{fill:#fff;}.cls-12{fill:#dde8f1;}.cls-13{clip-path:url(#clip-path);}.cls-14{fill:#7da3d2;}.cls-15{fill:#6583a8;}.cls-16{fill:#727373;}.cls-17{fill:#989595;}.cls-18{clip-path:url(#clip-path-2);}.cls-19{fill:#367fc1;}.cls-20{fill:#2964a5;}.cls-21{fill:#1c547d;}.cls-22{fill:#4093d0;}.cls-23{clip-path:url(#clip-path-3);}.cls-24{fill:#633e24;}.cls-25{fill:#875935;}.cls-26{fill:#b6977f;}.cls-27{fill:#56bc75;}.cls-28{fill:#409b59;}.cls-29{fill:#eef7f0;}.cls-30{fill:#db8160;}.cls-31{fill:#c66b4f;}.cls-32{fill:#bfbfbf;}.cls-33{fill:#e0e0e0;}.cls-34{fill:#a3a3a3;}.cls-35{fill:#8e8e8e;}</style><clipPath id="clip-path"><rect class="cls-1" x="92" y="217" width="324" height="653"/></clipPath><clipPath id="clip-path-2"><rect class="cls-1" x="92" y="504.87" width="324" height="344.68"/></clipPath><clipPath id="clip-path-3"><rect class="cls-1" x="92" y="650.57" width="103.56" height="170.93"/></clipPath></defs><title>Imagery</title><rect class="cls-2" x="13.5" y="14" width="481" height="852"/><rect class="cls-3" width="508" height="18"/><rect class="cls-3" x="14" y="114" width="481" height="89"/><rect class="cls-3" y="105" width="508" height="18"/><rect class="cls-4" x="5.75" y="123" width="496.5" height="8"/><rect class="cls-4" x="5.75" y="199" width="496.5" height="8"/><rect class="cls-3" x="13.5" y="794" width="481" height="72"/><rect class="cls-4" x="5.75" y="790" width="496.5" height="8"/><rect class="cls-4" x="5.75" y="862" width="496.5" height="8"/><rect class="cls-5" x="77" y="123" width="354" height="747"/><rect class="cls-6" x="89.5" y="134" width="329" height="60"/><rect class="cls-2" x="21.5" y="143.5" width="48" height="43" transform="translate(210.5 119.5) rotate(90)"/><rect class="cls-2" x="438.5" y="143.5" width="48" height="43" transform="translate(627.5 -297.5) rotate(90)"/><rect class="cls-2" x="21.5" y="808.5" width="48" height="43" transform="translate(875.5 784.5) rotate(90)"/><rect class="cls-2" x="438.5" y="808.5" width="48" height="43" transform="translate(1292.5 367.5) rotate(90)"/><line class="cls-7" x1="32.5" y1="29.5" x2="32.5" y2="92.5"/><line class="cls-7" x1="72.77" y1="29.5" x2="72.77" y2="92.5"/><line class="cls-7" x1="113.05" y1="29.5" x2="113.05" y2="92.5"/><line class="cls-7" x1="153.32" y1="29.5" x2="153.32" y2="92.5"/><line class="cls-7" x1="193.59" y1="29.5" x2="193.59" y2="92.5"/><line class="cls-7" x1="233.86" y1="29.5" x2="233.86" y2="92.5"/><line class="cls-7" x1="274.14" y1="29.5" x2="274.14" y2="92.5"/><line class="cls-7" x1="314.41" y1="29.5" x2="314.41" y2="92.5"/><line class="cls-7" x1="354.68" y1="29.5" x2="354.68" y2="92.5"/><line class="cls-7" x1="394.95" y1="29.5" x2="394.95" y2="92.5"/><line class="cls-7" x1="435.23" y1="29.5" x2="435.23" y2="92.5"/><line class="cls-7" x1="475.5" y1="29.5" x2="475.5" y2="92.5"/><rect class="cls-8" x="92" y="217" width="324" height="653"/><rect class="cls-9" x="92" y="773" width="324" height="97"/><rect class="cls-10" x="92" y="773" width="324" height="5.93"/><rect class="cls-11" x="92" y="774.98" width="324" height="13.55"/><rect class="cls-11" x="237.77" y="370.06" width="178.23" height="283.91"/><rect class="cls-10" x="199.93" y="427.91" width="263.92" height="168.23" transform="translate(843.91 180.14) rotate(90)"/><rect class="cls-12" x="249.27" y="381.56" width="166.73" height="260.92"/><rect class="cls-10" x="262.14" y="447" width="153.86" height="9.9"/><rect class="cls-11" x="262.14" y="446.02" width="153.86" height="10"/><g class="cls-13"><path class="cls-14" d="M490.53,336h-2.84a20.27,20.27,0,0,1-7.9,1.73V783.46h19.38V337.76A21.26,21.26,0,0,1,490.53,336Z"/><path class="cls-14" d="M468.83,336h-1.42V783.46h10.07V337.76A21.31,21.31,0,0,1,468.83,336Z"/><path class="cls-14" d="M512.23,336h-2.84a20.44,20.44,0,0,1-7.91,1.74V783.46h19.38V337.76A21.21,21.21,0,0,1,512.23,336Z"/><path class="cls-15" d="M478.26,337.77h-.78v445.7h2.31V337.73C479.29,337.76,478.78,337.77,478.26,337.77Z"/><path class="cls-15" d="M500,337.77h-.79v445.7h2.31V337.74C501,337.76,500.48,337.77,500,337.77Z"/><path class="cls-16" d="M591.56,329.93a8.31,8.31,0,0,0,1.88-5.29,8.41,8.41,0,0,0-15.91-3.79H152a8.41,8.41,0,1,0-1,9.08H578.5a8.39,8.39,0,0,0,13.06,0Z"/><path class="cls-14" d="M219.46,336h-2.84a20.59,20.59,0,0,1-7.92,1.74V783.46h19.37V337.75A21.12,21.12,0,0,1,219.46,336Z"/><path class="cls-14" d="M176.06,336h-2.84a20.31,20.31,0,0,1-7.9,1.73V783.46H184.7V337.76A21.22,21.22,0,0,1,176.06,336Z"/><path class="cls-14" d="M154.35,336h-1.41V783.46H163V337.76A21.4,21.4,0,0,1,154.35,336Z"/><path class="cls-14" d="M197.76,336h-2.84a20.53,20.53,0,0,1-7.91,1.74V783.46h19.37V337.76A21.15,21.15,0,0,1,197.76,336Z"/><path class="cls-14" d="M262.14,336H260a20.48,20.48,0,0,1-7.95,1.74V783.46h10.07Z"/><path class="cls-14" d="M241.16,336h-2.84a20.61,20.61,0,0,1-7.94,1.74V783.46h19.38V337.75A21.1,21.1,0,0,1,241.16,336Z"/><path class="cls-15" d="M163.79,337.77H163v445.7h2.31V337.73C164.82,337.76,164.31,337.77,163.79,337.77Z"/><path class="cls-15" d="M250.59,337.77l-.83,0V783.46h2.31V337.74C251.58,337.76,251.09,337.77,250.59,337.77Z"/><path class="cls-15" d="M228.89,337.77l-.82,0V783.46h2.31V337.74C229.89,337.76,229.39,337.77,228.89,337.77Z"/><path class="cls-15" d="M207.19,337.77h-.81v445.7h2.32V337.74C208.2,337.76,207.7,337.77,207.19,337.77Z"/><path class="cls-15" d="M185.49,337.77h-.79v445.7H187V337.74C186.51,337.76,186,337.77,185.49,337.77Z"/><rect class="cls-17" x="154.54" y="317.11" width="3.94" height="25.65" rx="1.54"/><rect class="cls-17" x="175.39" y="317.11" width="3.94" height="25.65" rx="1.54"/><rect class="cls-17" x="196.25" y="317.11" width="3.94" height="25.65" rx="1.54"/><rect class="cls-17" x="217.1" y="317.11" width="3.94" height="25.65" rx="1.54"/><rect class="cls-17" x="237.95" y="317.11" width="3.94" height="25.65" rx="1.54"/><rect class="cls-17" x="258.8" y="317.11" width="3.94" height="25.65" rx="1.54"/><rect class="cls-17" x="279.65" y="317.11" width="3.94" height="25.65" rx="1.54"/><rect class="cls-17" x="300.51" y="317.11" width="3.94" height="25.65" rx="1.54"/><rect class="cls-17" x="321.36" y="317.11" width="3.94" height="25.65" rx="1.54"/><rect class="cls-17" x="342.21" y="317.11" width="3.94" height="25.65" rx="1.54"/><rect class="cls-17" x="363.06" y="317.11" width="3.94" height="25.65" rx="1.54"/><rect class="cls-17" x="383.91" y="317.11" width="3.94" height="25.65" rx="1.54"/><rect class="cls-17" x="404.77" y="317.11" width="3.94" height="25.65" rx="1.54"/><rect class="cls-17" x="425.62" y="317.11" width="3.94" height="25.65" rx="1.54"/><rect class="cls-17" x="446.47" y="317.11" width="3.94" height="25.65" rx="1.54"/><rect class="cls-17" x="467.32" y="317.11" width="3.94" height="25.65" rx="1.54"/><rect class="cls-17" x="488.17" y="317.11" width="3.94" height="25.65" rx="1.54"/></g><g class="cls-18"><rect class="cls-19" x="236.26" y="562.97" width="396.77" height="158.55" rx="43"/><rect class="cls-20" x="236.26" y="572.92" width="396.77" height="158.55" rx="43"/><path class="cls-20" d="M259.34,832.58H225.26a9,9,0,0,1-9-9l-26-139a9,9,0,0,1,9-9H233.3a9,9,0,0,1,9,9l26,139A9,9,0,0,1,259.34,832.58Z"/><path class="cls-21" d="M600.64,832.58H266.13a9,9,0,0,1-9-9l-14.74-70.85a9,9,0,0,1,9-9H600.64a9,9,0,0,1,9,9v70.85A9,9,0,0,1,600.64,832.58Z"/><path class="cls-22" d="M199.21,675.56H233.3a9,9,0,0,1,8,4.88l-2.81-15a9,9,0,0,0-9-9H195.38a9,9,0,0,0-9,9l3.83,19.15A9,9,0,0,1,199.21,675.56Z"/><rect class="cls-22" x="429.64" y="693.95" width="193.79" height="52.85" rx="14.07"/><rect class="cls-22" x="236.26" y="693.95" width="193.79" height="52.85" rx="14.07"/><rect class="cls-19" x="236.26" y="704.9" width="193.79" height="48.26" rx="4"/><rect class="cls-19" x="429.64" y="704.9" width="193.79" height="48.26" rx="4"/><circle class="cls-21" cx="301.24" cy="608.41" r="4.85"/><circle class="cls-21" cx="365.07" cy="608.41" r="4.85"/><circle class="cls-21" cx="301.24" cy="652.2" r="4.85"/><circle class="cls-21" cx="365.07" cy="652.2" r="4.85"/><circle class="cls-21" cx="494.62" cy="608.41" r="4.85"/><circle class="cls-21" cx="494.62" cy="652.2" r="4.85"/></g><g class="cls-23"><rect class="cls-24" x="113.99" y="717.07" width="11.34" height="65.05"/><path class="cls-24" d="M125.33,770.92s7.24-1.13,11.2,4.09,2.7,11,5.22,14.94,5.22,5,7.74,5,3.06,1.44,3.42,3.42H140.49a15.92,15.92,0,0,1-4.86-8.64c-.53-3-1.7-7.65-10.3-7.65Z"/><path class="cls-24" d="M114,770.92s-7.24-1.13-11.2,4.09-2.7,11-5.22,14.94-5.22,5-7.74,5-3.06,1.44-3.42,3.42H98.83a15.92,15.92,0,0,0,4.86-8.64c.53-3,1.7-7.65,10.3-7.65Z"/><path class="cls-24" d="M120.83,809.38h-3a2.28,2.28,0,0,1-2.28-2.26l-2.27-25.7a2.27,2.27,0,0,1,2.27-2.27h7.55a2.27,2.27,0,0,1,2.27,2.27l-2.27,25.7A2.27,2.27,0,0,1,120.83,809.38Z"/><path class="cls-24" d="M115.18,802.92s-3.05,6.36-1.45,6.46h5.87Z"/><path class="cls-24" d="M123.47,802.92s3,6.36,1.43,6.46H119Z"/><path class="cls-25" d="M53.66,708.86c0,8.27,29.55,15,66,15,36.28,0,65.72-6.65,66-14.87a.41.41,0,0,0,0-.11s.09-2.39,0-3.17-2.16-.27-2.16-.27l-2.68,3.48"/><ellipse class="cls-26" cx="119.66" cy="705.69" rx="66" ry="14.98"/><rect class="cls-27" x="58.39" y="687.81" width="70.12" height="8.52" transform="translate(186.9 1384.13) rotate(180)"/><rect class="cls-28" x="58.39" y="692.07" width="70.12" height="4.26" transform="translate(186.9 1388.39) rotate(180)"/><rect class="cls-29" x="119.81" y="687.81" width="4.08" height="8.52" transform="translate(243.71 1384.13) rotate(180)"/><rect class="cls-30" x="48.49" y="696.32" width="84.06" height="10.21" transform="translate(181.05 1402.85) rotate(180)"/><rect class="cls-31" x="48.49" y="701.42" width="84.06" height="5.11" transform="translate(181.05 1407.95) rotate(180)"/><rect class="cls-29" x="122.13" y="696.32" width="4.89" height="10.21" transform="translate(249.15 1402.85) rotate(180)"/></g><ellipse class="cls-32" cx="153.56" cy="708.54" rx="9.27" ry="3.01"/><ellipse class="cls-33" cx="153.56" cy="706.19" rx="12.51" ry="3.45"/><path class="cls-34" d="M165.26,706c0-1.42-5.24-2.57-11.7-2.57s-11.7,1.15-11.7,2.57c0,.28.21.55.59.8.85-1.18,5.5-2.08,11.11-2.08s10.25.9,11.11,2.08C165.05,706.53,165.26,706.26,165.26,706Z"/><path class="cls-35" d="M153.56,704.7c-5.61,0-10.26.9-11.11,2.08,1.53,1,5.92,1.76,11.11,1.76s9.57-.74,11.11-1.76C163.81,705.6,159.17,704.7,153.56,704.7Z"/></svg>