<svg id="Layer_1" data-name="Layer 1" xmlns="http://www.w3.org/2000/svg" width="179.21mm" height="307.01mm" viewBox="0 0 508 870.26"><defs><style>.cls-1{fill:#2f2224;}.cls-2{fill:#48393c;}.cls-3{fill:#615658;}.cls-4{fill:#138481;}.cls-5{fill:#fce5a7;}.cls-6{fill:none;stroke:#615658;stroke-linecap:round;stroke-miterlimit:10;stroke-width:9px;}.cls-7{fill:#f8cf71;}.cls-8{fill:#f6be4f;}.cls-9{fill:#885b52;}.cls-10{fill:#9c6b5e;}.cls-11{fill:#b5816f;}.cls-12{fill:#aa786b;}.cls-13{fill:#764b44;}.cls-14{fill:#885b54;}.cls-15{fill:#e82525;}.cls-16{fill:#b22024;}.cls-17{fill:#764c45;}.cls-18{fill:#895c55;}</style></defs><title>Imagery</title><rect class="cls-1" x="13.5" y="14" width="481" height="852"/><rect class="cls-2" width="508" height="18"/><rect class="cls-2" x="14" y="114" width="481" height="89"/><rect class="cls-2" y="105" width="508" height="18"/><rect class="cls-3" x="5.75" y="123" width="496.5" height="8"/><rect class="cls-3" x="5.75" y="199" width="496.5" height="8"/><rect class="cls-2" x="13.5" y="794" width="481" height="72"/><rect class="cls-3" x="5.75" y="790" width="496.5" height="8"/><rect class="cls-3" x="5.75" y="862" width="496.5" height="8"/><rect class="cls-4" x="77" y="123" width="354" height="747"/><rect class="cls-5" x="89.5" y="134" width="329" height="60"/><rect class="cls-1" x="21.5" y="143.5" width="48" height="43" transform="translate(210.5 119.5) rotate(90)"/><rect class="cls-1" x="438.5" y="143.5" width="48" height="43" transform="translate(627.5 -297.5) rotate(90)"/><rect class="cls-1" x="21.5" y="808.5" width="48" height="43" transform="translate(875.5 784.5) rotate(90)"/><rect class="cls-1" x="438.5" y="808.5" width="48" height="43" transform="translate(1292.5 367.5) rotate(90)"/><line class="cls-6" x1="32.5" y1="29.5" x2="32.5" y2="92.5"/><line class="cls-6" x1="72.77" y1="29.5" x2="72.77" y2="92.5"/><line class="cls-6" x1="113.05" y1="29.5" x2="113.05" y2="92.5"/><line class="cls-6" x1="153.32" y1="29.5" x2="153.32" y2="92.5"/><line class="cls-6" x1="193.59" y1="29.5" x2="193.59" y2="92.5"/><line class="cls-6" x1="233.86" y1="29.5" x2="233.86" y2="92.5"/><line class="cls-6" x1="274.14" y1="29.5" x2="274.14" y2="92.5"/><line class="cls-6" x1="314.41" y1="29.5" x2="314.41" y2="92.5"/><line class="cls-6" x1="354.68" y1="29.5" x2="354.68" y2="92.5"/><line class="cls-6" x1="394.95" y1="29.5" x2="394.95" y2="92.5"/><line class="cls-6" x1="435.23" y1="29.5" x2="435.23" y2="92.5"/><line class="cls-6" x1="475.5" y1="29.5" x2="475.5" y2="92.5"/><rect class="cls-7" x="92" y="217" width="324" height="653"/><polygon class="cls-8" points="373.87 788 416 789.43 416 217 92 217 92 256.29 364 281 373.87 788"/><rect class="cls-9" x="92" y="773" width="324" height="18"/><rect class="cls-10" x="92" y="779" width="324" height="22"/><rect class="cls-11" x="92" y="801" width="324" height="69"/><polygon class="cls-12" points="416 870 416 791 381.39 791 382.55 801 416 870"/><polygon class="cls-13" points="416 773 373.31 773 380 779 381.86 795 416 795 416 773"/><polygon class="cls-14" points="416 779 380 779 382.55 801 416 801 416 779"/><path class="cls-8" d="M415.87,751l-98.4-294.87-11.23-33.64-.41-1.24c-2.14-1.49-4.18-2.93-5.93-4.21q-2-1.68-4-3.33c-1.92-2.33,3.36-1.09,7.17-.89l-2-6.14C240.39,359.54,186.52,382,186.52,382h0a51.42,51.42,0,0,0-10.32,5.11c-20,13-30,35.09-31.14,61.45,0,.3,0,.61,0,.92v0s-.07,1.18-.07,3.44v.46c0,.48,0,1,0,1.56a136.41,136.41,0,0,0,1.25,16.84c2.16,18.43,7.89,47.69,22.76,85.62,4.22,4.22,3.1-17.32,7-6.81S186.48,588,188.2,578.75s4.75-1.64,5,3.81c.29,6.93.61,12.92.91,17.83a71.77,71.77,0,0,0,1.12,15.09v0h0c.91,5.35,2.23,10.68,3.51,15.94,10.87,44.65,30.61,85.78,50.94,126.62,1.78,3.58,4.64,8.48,8.83,9a2.94,2.94,0,0,0,2.71-1.6c1.61-3.31-.55-7.42-1.55-10.92-2.92-10.21-6.65-20.2-9.27-30.48-6.33-24.74-12.52-49.53-18-74.47-1.25-5.64-3-13.23,1.54-18.63l0,0c3,9.7,6.56,20.22,11,31.51,4.23,4.23,3.1-17.31,7-6.8s10.52,37.44,12.24,28.17a24.67,24.67,0,0,1,3-7.93c10.73,15.56,18.3,26.79,36.3,50.75A535.75,535.75,0,0,0,341.72,773h74.15Z"/><path d="M416,324.45V318c-42.55-63.84-100.77-59.57-100.77-59.57h0A51.81,51.81,0,0,0,303.83,260c-23.08,6-39.59,23.78-49,48.44-.11.28-.2.58-.31.86v0s-.44,1.1-1.15,3.24c0,.15-.1.29-.14.44-.15.45-.31.94-.48,1.48a139.36,139.36,0,0,0-4.15,16.37c-3.78,18.17-7.61,47.74-5.51,88.42,2.67,5.35,8.42-15.44,8.75-4.25s-1.87,38.85,2.7,30.6,5-.05,3.51,5.19c-1.92,6.67-3.51,12.46-4.77,17.21a70.36,70.36,0,0,0-3.72,14.66v0h0c-.83,5.37-1.26,10.85-1.71,16.24-3.82,45.79,1.88,91,8.23,136.23.56,4,1.72,9.51,5.53,11.33a2.92,2.92,0,0,0,3.08-.66c2.57-2.63,1.82-7.2,2-10.84.47-10.61.09-21.27.85-31.85,1.84-25.47,3.82-51,6.47-76.35.6-5.75,1.29-13.52,7.36-17.19l0,0c-.27,10.14-.18,21.25.45,33.37,2.67,5.35,8.42-15.44,8.75-4.24s-1.87,38.84,2.7,30.59a24.54,24.54,0,0,1,5.32-6.58c5.24,18.14,8.87,31.2,18.36,59.63,11.85,35.52,25.17,68.72,48.18,103.76,14.8,22.53,37.11,43.52,50.86,54.91V333.34c-1.55-2.1-3-4.1-4.29-5.87q-1.38-2.25-2.79-4.45C407.83,320.21,412.45,323.05,416,324.45Z"/><path class="cls-15" d="M318.78,341l-36.58,2.55S299.19,383.38,318.78,341Z"/><path class="cls-16" d="M299.92,354.84c-5.49,0-10.48-6.65-13.28-11.61l27.41-1.91c-4.74,8.87-9.58,13.52-14.13,13.52Z"/><path class="cls-15" d="M332.71,334.86l27.67-24.06S376.53,351,332.71,334.86Z"/><path class="cls-16" d="M348.31,333.54a41.38,41.38,0,0,1-11.7-2.09l20.72-18c1.37,5,2.49,12.39-.32,16.55C355.39,332.37,352.54,333.54,348.31,333.54Z"/><path class="cls-17" d="M415.87,779v-6H341.72q2.83,3,5.77,6Z"/><path class="cls-18" d="M347.49,779q5.94,6.06,12.35,12,5.43,5,11.25,10h44.78V779Z"/><path class="cls-12" d="M381.92,809.86a222.69,222.69,0,0,0,33.95,21.54V801H371.09Q376.33,805.45,381.92,809.86Z"/></svg>