<svg id="Layer_1" data-name="Layer 1" xmlns="http://www.w3.org/2000/svg" width="179.21mm" height="307.01mm" viewBox="0 0 508 870.26"><defs><style>.cls-1{fill:#2f2224;}.cls-2{fill:#48393c;}.cls-3{fill:#615658;}.cls-4{fill:none;stroke:#615658;stroke-linecap:round;stroke-miterlimit:10;stroke-width:9px;}.cls-5{fill:#f8cf71;}.cls-6{fill:#f6be4f;}.cls-7{fill:#885b52;}.cls-8{fill:#9c6b5e;}.cls-9{fill:#b5816f;}.cls-10{fill:#aa786b;}.cls-11{fill:#764b44;}.cls-12{fill:#885b54;}.cls-13{fill:#138481;}.cls-14{fill:#fce5a7;}.cls-15{fill:#1ca096;}.cls-16{fill:#f4c869;}.cls-17{fill:#31b8ab;}</style></defs><title>Imagery</title><rect class="cls-1" x="13.5" y="14" width="481" height="852"/><rect class="cls-2" width="508" height="18"/><rect class="cls-2" x="14" y="114" width="481" height="89"/><rect class="cls-2" y="105" width="508" height="18"/><rect class="cls-3" x="5.75" y="123" width="496.5" height="8"/><rect class="cls-3" x="5.75" y="199" width="496.5" height="8"/><rect class="cls-2" x="13.5" y="794" width="481" height="72"/><rect class="cls-3" x="5.75" y="790" width="496.5" height="8"/><rect class="cls-3" x="5.75" y="862" width="496.5" height="8"/><rect class="cls-1" x="21.5" y="143.5" width="48" height="43" transform="translate(210.5 119.5) rotate(90)"/><rect class="cls-1" x="438.5" y="143.5" width="48" height="43" transform="translate(627.5 -297.5) rotate(90)"/><rect class="cls-1" x="21.5" y="808.5" width="48" height="43" transform="translate(875.5 784.5) rotate(90)"/><rect class="cls-1" x="438.5" y="808.5" width="48" height="43" transform="translate(1292.5 367.5) rotate(90)"/><line class="cls-4" x1="32.5" y1="29.5" x2="32.5" y2="92.5"/><line class="cls-4" x1="72.77" y1="29.5" x2="72.77" y2="92.5"/><line class="cls-4" x1="113.05" y1="29.5" x2="113.05" y2="92.5"/><line class="cls-4" x1="153.32" y1="29.5" x2="153.32" y2="92.5"/><line class="cls-4" x1="193.59" y1="29.5" x2="193.59" y2="92.5"/><line class="cls-4" x1="233.86" y1="29.5" x2="233.86" y2="92.5"/><line class="cls-4" x1="274.14" y1="29.5" x2="274.14" y2="92.5"/><line class="cls-4" x1="314.41" y1="29.5" x2="314.41" y2="92.5"/><line class="cls-4" x1="354.68" y1="29.5" x2="354.68" y2="92.5"/><line class="cls-4" x1="394.95" y1="29.5" x2="394.95" y2="92.5"/><line class="cls-4" x1="435.23" y1="29.5" x2="435.23" y2="92.5"/><line class="cls-4" x1="475.5" y1="29.5" x2="475.5" y2="92.5"/><rect class="cls-5" x="92" y="217" width="324" height="653"/><polygon class="cls-6" points="373.87 788 416 789.43 416 217 92 217 92 256.29 364 281 373.87 788"/><rect class="cls-7" x="92" y="773" width="324" height="18"/><rect class="cls-8" x="92" y="779" width="324" height="22"/><rect class="cls-9" x="92" y="801" width="324" height="69"/><polygon class="cls-10" points="416 870 416 791 381.39 791 382.55 801 416 870"/><polygon class="cls-11" points="416 773 373.31 773 380 779 381.86 795 416 795 416 773"/><polygon class="cls-12" points="416 779 380 779 382.55 801 416 801 416 779"/><rect class="cls-13" x="77" y="123" width="354" height="747"/><rect class="cls-14" x="89.5" y="134" width="329" height="60"/><rect class="cls-15" x="92" y="217" width="158.5" height="653"/><rect class="cls-15" x="257.5" y="217" width="158.5" height="653"/><circle class="cls-16" cx="238" cy="616.5" r="8.5"/><circle class="cls-16" cx="270" cy="616.5" r="8.5"/><path class="cls-17" d="M221,273.79V561H121.54V273.79H221m6-6H115.54V567H227V267.79Z"/><rect class="cls-14" x="131.54" y="283.79" width="79.42" height="267.23"/><path class="cls-17" d="M158.49,653v73.61h-40V653h40m3-3h-46v79.61h46V650Z"/><rect class="cls-14" x="109.68" y="677.83" width="57.61" height="24" transform="translate(828.32 551.34) rotate(90)"/><path class="cls-17" d="M158.49,751.32v73.61h-40V751.32h40m3-3h-46v79.61h46V748.32Z"/><rect class="cls-14" x="109.68" y="776.13" width="57.61" height="24" transform="translate(926.61 649.64) rotate(90)"/><path class="cls-17" d="M223.78,653v73.61h-40V653h40m3-3h-46v79.61h46V650Z"/><rect class="cls-14" x="174.97" y="677.83" width="57.61" height="24" transform="translate(893.61 486.05) rotate(90)"/><path class="cls-17" d="M223.78,751.32v73.61h-40V751.32h40m3-3h-46v79.61h46V748.32Z"/><rect class="cls-14" x="174.97" y="776.13" width="57.61" height="24" transform="translate(991.9 584.35) rotate(90)"/><path class="cls-17" d="M324.1,653v73.61h-40V653h40m3-3h-46v79.61h46V650Z"/><rect class="cls-14" x="275.3" y="677.83" width="57.61" height="24" transform="translate(993.93 385.72) rotate(90)"/><path class="cls-17" d="M324.1,751.32v73.61h-40V751.32h40m3-3h-46v79.61h46V748.32Z"/><rect class="cls-14" x="275.3" y="776.13" width="57.61" height="24" transform="translate(1092.23 484.02) rotate(90)"/><path class="cls-17" d="M389.39,653v73.61h-40V653h40m3-3h-46v79.61h46V650Z"/><rect class="cls-14" x="340.59" y="677.83" width="57.61" height="24" transform="translate(1059.22 320.43) rotate(90)"/><path class="cls-17" d="M389.39,751.32v73.61h-40V751.32h40m3-3h-46v79.61h46V748.32Z"/><rect class="cls-14" x="340.59" y="776.13" width="57.61" height="24" transform="translate(1157.52 418.73) rotate(90)"/><path class="cls-17" d="M386.46,273.79V561H287V273.79h99.42m6-6H281V567H392.46V267.79Z"/><rect class="cls-14" x="297.04" y="283.79" width="79.42" height="267.23"/></svg>