<svg id="Layer_1" data-name="Layer 1" xmlns="http://www.w3.org/2000/svg" xmlns:xlink="http://www.w3.org/1999/xlink" width="205.29mm" height="308.21mm" viewBox="0 0 581.94 873.66"><defs><style>.cls-1{fill:none;}.cls-2{clip-path:url(#clip-path);}.cls-3{fill:#798b93;}.cls-4{fill:#67787f;}.cls-5{fill:#6f818c;}.cls-6{fill:#829499;}</style><clipPath id="clip-path"><rect class="cls-1" width="581.94" height="873.66"/></clipPath></defs><title>logo</title><g class="cls-2"><rect class="cls-3" width="581.94" height="873.66"/><rect class="cls-4" x="-75.26" y="10.47" width="89.6" height="33.21"/><rect class="cls-5" x="21.73" y="10.47" width="89.6" height="33.21"/><rect class="cls-5" x="118.72" y="10.47" width="89.6" height="33.21"/><rect class="cls-5" x="215.71" y="10.47" width="89.6" height="33.21"/><rect class="cls-5" x="312.7" y="10.47" width="89.6" height="33.21"/><rect class="cls-5" x="409.69" y="10.47" width="89.6" height="33.21"/><rect class="cls-4" x="506.68" y="10.47" width="89.6" height="33.21"/><rect class="cls-5" x="-28.18" y="54.15" width="89.6" height="33.21"/><rect class="cls-6" x="68.8" y="54.15" width="89.6" height="33.21"/><rect class="cls-5" x="165.79" y="54.15" width="89.6" height="33.21"/><rect class="cls-5" x="262.78" y="54.15" width="89.6" height="33.21"/><rect class="cls-5" x="359.77" y="54.15" width="89.6" height="33.21"/><rect class="cls-5" x="456.76" y="54.15" width="89.6" height="33.21"/><rect class="cls-5" x="553.75" y="54.15" width="89.6" height="33.21"/><rect class="cls-5" x="-75.26" y="796.76" width="89.6" height="33.21"/><rect class="cls-5" x="21.73" y="796.76" width="89.6" height="33.21"/><rect class="cls-4" x="118.72" y="796.76" width="89.6" height="33.21"/><rect class="cls-5" x="215.71" y="796.76" width="89.6" height="33.21"/><rect class="cls-5" x="312.7" y="796.76" width="89.6" height="33.21"/><rect class="cls-5" x="409.69" y="796.76" width="89.6" height="33.21"/><rect class="cls-5" x="506.68" y="796.76" width="89.6" height="33.21"/><rect class="cls-5" x="-28.18" y="840.45" width="89.6" height="33.21"/><rect class="cls-6" x="68.8" y="840.45" width="89.6" height="33.21"/><rect class="cls-5" x="165.79" y="840.45" width="89.6" height="33.21"/><rect class="cls-5" x="262.78" y="840.45" width="89.6" height="33.21"/><rect class="cls-4" x="359.77" y="840.45" width="89.6" height="33.21"/><rect class="cls-5" x="456.76" y="840.45" width="89.6" height="33.21"/><rect class="cls-5" x="553.75" y="840.45" width="89.6" height="33.21"/><rect class="cls-5" x="-75.26" y="97.84" width="89.6" height="33.21"/><rect class="cls-4" x="21.73" y="97.84" width="89.6" height="33.21"/><rect class="cls-5" x="118.72" y="97.84" width="89.6" height="33.21"/><rect class="cls-5" x="215.71" y="97.84" width="89.6" height="33.21"/><rect class="cls-5" x="312.7" y="97.84" width="89.6" height="33.21"/><rect class="cls-6" x="409.69" y="97.84" width="89.6" height="33.21"/><rect class="cls-5" x="506.68" y="97.84" width="89.6" height="33.21"/><rect class="cls-5" x="-28.18" y="141.52" width="89.6" height="33.21"/><rect class="cls-5" x="68.8" y="141.52" width="89.6" height="33.21"/><rect class="cls-5" x="165.79" y="141.52" width="89.6" height="33.21"/><rect class="cls-5" x="262.78" y="141.52" width="89.6" height="33.21"/><rect class="cls-5" x="359.77" y="141.52" width="89.6" height="33.21"/><rect class="cls-5" x="456.76" y="141.52" width="89.6" height="33.21"/><rect class="cls-5" x="553.75" y="141.52" width="89.6" height="33.21"/><rect class="cls-5" x="-75.26" y="185.2" width="89.6" height="33.21"/><rect class="cls-5" x="21.73" y="185.2" width="89.6" height="33.21"/><rect class="cls-5" x="118.72" y="185.2" width="89.6" height="33.21"/><rect class="cls-5" x="215.71" y="185.2" width="89.6" height="33.21"/><rect class="cls-5" x="312.7" y="185.2" width="89.6" height="33.21"/><rect class="cls-5" x="409.69" y="185.2" width="89.6" height="33.21"/><rect class="cls-5" x="506.68" y="185.2" width="89.6" height="33.21"/><rect class="cls-6" x="-28.18" y="228.88" width="89.6" height="33.21"/><rect class="cls-5" x="68.8" y="228.88" width="89.6" height="33.21"/><rect class="cls-5" x="165.79" y="228.88" width="89.6" height="33.21"/><rect class="cls-4" x="262.78" y="228.88" width="89.6" height="33.21"/><rect class="cls-5" x="359.77" y="228.88" width="89.6" height="33.21"/><rect class="cls-5" x="456.76" y="228.88" width="89.6" height="33.21"/><rect class="cls-6" x="553.75" y="228.88" width="89.6" height="33.21"/><rect class="cls-5" x="-75.26" y="272.57" width="89.6" height="33.21"/><rect class="cls-5" x="21.73" y="272.57" width="89.6" height="33.21"/><rect class="cls-5" x="118.72" y="272.57" width="89.6" height="33.21"/><rect class="cls-5" x="215.71" y="272.57" width="89.6" height="33.21"/><rect class="cls-5" x="312.7" y="272.57" width="89.6" height="33.21"/><rect class="cls-5" x="409.69" y="272.57" width="89.6" height="33.21"/><rect class="cls-5" x="506.68" y="272.57" width="89.6" height="33.21"/><rect class="cls-4" x="-28.18" y="316.25" width="89.6" height="33.21"/><rect class="cls-6" x="68.8" y="316.25" width="89.6" height="33.21"/><rect class="cls-5" x="165.79" y="316.25" width="89.6" height="33.21"/><rect class="cls-5" x="262.78" y="316.25" width="89.6" height="33.21"/><rect class="cls-5" x="359.77" y="316.25" width="89.6" height="33.21"/><rect class="cls-5" x="456.76" y="316.25" width="89.6" height="33.21"/><rect class="cls-4" x="553.75" y="316.25" width="89.6" height="33.21"/><rect class="cls-5" x="-75.26" y="359.93" width="89.6" height="33.21"/><rect class="cls-5" x="21.73" y="359.93" width="89.6" height="33.21"/><rect class="cls-4" x="118.72" y="359.93" width="89.6" height="33.21"/><rect class="cls-5" x="215.71" y="359.93" width="89.6" height="33.21"/><rect class="cls-6" x="312.7" y="359.93" width="89.6" height="33.21"/><rect class="cls-5" x="409.69" y="359.93" width="89.6" height="33.21"/><rect class="cls-5" x="506.68" y="359.93" width="89.6" height="33.21"/><rect class="cls-5" x="-28.18" y="403.62" width="89.6" height="33.21"/><rect class="cls-5" x="68.8" y="403.62" width="89.6" height="33.21"/><rect class="cls-5" x="165.79" y="403.62" width="89.6" height="33.21"/><rect class="cls-5" x="262.78" y="403.62" width="89.6" height="33.21"/><rect class="cls-4" x="359.77" y="403.62" width="89.6" height="33.21"/><rect class="cls-5" x="456.76" y="403.62" width="89.6" height="33.21"/><rect class="cls-5" x="553.75" y="403.62" width="89.6" height="33.21"/><rect class="cls-5" x="-75.26" y="447.3" width="89.6" height="33.21"/><rect class="cls-5" x="21.73" y="447.3" width="89.6" height="33.21"/><rect class="cls-5" x="118.72" y="447.3" width="89.6" height="33.21"/><rect class="cls-5" x="215.71" y="447.3" width="89.6" height="33.21"/><rect class="cls-4" x="312.7" y="447.3" width="89.6" height="33.21"/><rect class="cls-5" x="409.69" y="447.3" width="89.6" height="33.21"/><rect class="cls-5" x="506.68" y="447.3" width="89.6" height="33.21"/><rect class="cls-4" x="-28.18" y="490.98" width="89.6" height="33.21"/><rect class="cls-5" x="68.8" y="490.98" width="89.6" height="33.21"/><rect class="cls-5" x="165.79" y="490.98" width="89.6" height="33.21"/><rect class="cls-5" x="262.78" y="490.98" width="89.6" height="33.21"/><rect class="cls-5" x="359.77" y="490.98" width="89.6" height="33.21"/><rect class="cls-5" x="456.76" y="490.98" width="89.6" height="33.21"/><rect class="cls-4" x="553.75" y="490.98" width="89.6" height="33.21"/><rect class="cls-6" x="-75.26" y="534.67" width="89.6" height="33.21"/><rect class="cls-5" x="21.73" y="534.67" width="89.6" height="33.21"/><rect class="cls-4" x="118.72" y="534.67" width="89.6" height="33.21"/><rect class="cls-5" x="215.71" y="534.67" width="89.6" height="33.21"/><rect class="cls-5" x="312.7" y="534.67" width="89.6" height="33.21"/><rect class="cls-5" x="409.69" y="534.67" width="89.6" height="33.21"/><rect class="cls-6" x="506.68" y="534.67" width="89.6" height="33.21"/><rect class="cls-5" x="-28.18" y="578.35" width="89.6" height="33.21"/><rect class="cls-6" x="68.8" y="578.35" width="89.6" height="33.21"/><rect class="cls-5" x="165.79" y="578.35" width="89.6" height="33.21"/><rect class="cls-5" x="262.78" y="578.35" width="89.6" height="33.21"/><rect class="cls-5" x="359.77" y="578.35" width="89.6" height="33.21"/><rect class="cls-5" x="456.76" y="578.35" width="89.6" height="33.21"/><rect class="cls-5" x="553.75" y="578.35" width="89.6" height="33.21"/><rect class="cls-5" x="-75.26" y="622.03" width="89.6" height="33.21"/><rect class="cls-5" x="21.73" y="622.03" width="89.6" height="33.21"/><rect class="cls-5" x="118.72" y="622.03" width="89.6" height="33.21"/><rect class="cls-5" x="215.71" y="622.03" width="89.6" height="33.21"/><rect class="cls-4" x="312.7" y="622.03" width="89.6" height="33.21"/><rect class="cls-5" x="409.69" y="622.03" width="89.6" height="33.21"/><rect class="cls-5" x="506.68" y="622.03" width="89.6" height="33.21"/><rect class="cls-5" x="-28.18" y="665.71" width="89.6" height="33.21"/><rect class="cls-5" x="68.8" y="665.71" width="89.6" height="33.21"/><rect class="cls-5" x="165.79" y="665.71" width="89.6" height="33.21"/><rect class="cls-5" x="262.78" y="665.71" width="89.6" height="33.21"/><rect class="cls-5" x="359.77" y="665.71" width="89.6" height="33.21"/><rect class="cls-5" x="456.76" y="665.71" width="89.6" height="33.21"/><rect class="cls-5" x="553.75" y="665.71" width="89.6" height="33.21"/><rect class="cls-5" x="-75.26" y="709.4" width="89.6" height="33.21"/><rect class="cls-4" x="21.73" y="709.4" width="89.6" height="33.21"/><rect class="cls-5" x="118.72" y="709.4" width="89.6" height="33.21"/><rect class="cls-5" x="215.71" y="709.4" width="89.6" height="33.21"/><rect class="cls-6" x="312.7" y="709.4" width="89.6" height="33.21"/><rect class="cls-5" x="409.69" y="709.4" width="89.6" height="33.21"/><rect class="cls-5" x="506.68" y="709.4" width="89.6" height="33.21"/><rect class="cls-4" x="-28.18" y="753.08" width="89.6" height="33.21"/><rect class="cls-5" x="68.8" y="753.08" width="89.6" height="33.21"/><rect class="cls-6" x="165.79" y="753.08" width="89.6" height="33.21"/><rect class="cls-5" x="262.78" y="753.08" width="89.6" height="33.21"/><rect class="cls-5" x="359.77" y="753.08" width="89.6" height="33.21"/><rect class="cls-5" x="456.76" y="753.08" width="89.6" height="33.21"/><rect class="cls-4" x="553.75" y="753.08" width="89.6" height="33.21"/></g></svg>