<svg xmlns="http://www.w3.org/2000/svg" width="179.21mm" height="307.01mm" viewBox="0 0 508 870.26"><defs><style>.cls-1{isolation:isolate;}.cls-2{fill:#2f2224;}.cls-3{fill:#48393c;}.cls-4{fill:#615658;}.cls-5{fill:#cd6a33;}.cls-6{fill:#fce5a7;}.cls-26,.cls-27,.cls-7{fill:none;stroke-linecap:round;stroke-miterlimit:10;}.cls-7{stroke:#615658;stroke-width:9px;}.cls-8{fill:#f2e4cc;}.cls-9{fill:#eef1f4;}.cls-10{fill:#302f30;}.cls-11{fill:#4a494a;}.cls-12{fill:#e2c799;}.cls-13{fill:#af8a66;}.cls-14{opacity:0.39;mix-blend-mode:multiply;}.cls-15{fill:#8a8db6;}.cls-16{fill:#ea7a5c;}.cls-17{fill:#bde3db;}.cls-18{fill:#dae6ef;}.cls-19{fill:#20394f;}.cls-20{fill:#f0f0f8;}.cls-21{fill:#382c2e;}.cls-22{fill:#dd5f46;}.cls-23{fill:#b34438;}.cls-24{fill:#fff;}.cls-25{fill:#b0b0b0;}.cls-26,.cls-27{stroke:#b0b0b0;}.cls-26{stroke-width:2px;}.cls-27{stroke-width:1.5px;}.cls-28{fill:#807d7e;}.cls-29{fill:#f15b25;}.cls-30{fill:#605c5d;}</style></defs><title>Imagery</title><g class="cls-1"><g id="Layer_1" data-name="Layer 1"><rect class="cls-2" x="13.5" y="14" width="481" height="852"/><rect class="cls-3" width="508" height="18"/><rect class="cls-3" x="14" y="114" width="481" height="89"/><rect class="cls-3" y="105" width="508" height="18"/><rect class="cls-4" x="5.75" y="123" width="496.5" height="8"/><rect class="cls-4" x="5.75" y="199" width="496.5" height="8"/><rect class="cls-3" x="13.5" y="794" width="481" height="72"/><rect class="cls-4" x="5.75" y="790" width="496.5" height="8"/><rect class="cls-4" x="5.75" y="862" width="496.5" height="8"/><rect class="cls-5" x="77" y="123" width="354" height="747"/><rect class="cls-6" x="89.5" y="134" width="329" height="60"/><rect class="cls-2" x="21.5" y="143.5" width="48" height="43" transform="translate(210.5 119.5) rotate(90)"/><rect class="cls-2" x="438.5" y="143.5" width="48" height="43" transform="translate(627.5 -297.5) rotate(90)"/><rect class="cls-2" x="21.5" y="808.5" width="48" height="43" transform="translate(875.5 784.5) rotate(90)"/><rect class="cls-2" x="438.5" y="808.5" width="48" height="43" transform="translate(1292.5 367.5) rotate(90)"/><line class="cls-7" x1="32.5" y1="29.5" x2="32.5" y2="92.5"/><line class="cls-7" x1="72.77" y1="29.5" x2="72.77" y2="92.5"/><line class="cls-7" x1="113.05" y1="29.5" x2="113.05" y2="92.5"/><line class="cls-7" x1="153.32" y1="29.5" x2="153.32" y2="92.5"/><line class="cls-7" x1="193.59" y1="29.5" x2="193.59" y2="92.5"/><line class="cls-7" x1="233.86" y1="29.5" x2="233.86" y2="92.5"/><line class="cls-7" x1="274.14" y1="29.5" x2="274.14" y2="92.5"/><line class="cls-7" x1="314.41" y1="29.5" x2="314.41" y2="92.5"/><line class="cls-7" x1="354.68" y1="29.5" x2="354.68" y2="92.5"/><line class="cls-7" x1="394.95" y1="29.5" x2="394.95" y2="92.5"/><line class="cls-7" x1="435.23" y1="29.5" x2="435.23" y2="92.5"/><line class="cls-7" x1="475.5" y1="29.5" x2="475.5" y2="92.5"/><rect class="cls-8" x="92" y="217" width="324" height="653"/><rect class="cls-9" x="92" y="773" width="324" height="97"/><rect class="cls-10" x="92" y="773" width="324" height="5.93"/><rect class="cls-11" x="92" y="774.98" width="324" height="7.25"/><rect class="cls-12" x="139.71" y="674.97" width="276.29" height="128.31"/><rect class="cls-13" x="139.71" y="802.28" width="276.29" height="12.37"/><g class="cls-14"><polygon class="cls-15" points="416 667.79 139.72 667.79 139.72 680.16 147.96 680.16 416 680.16 416 667.79"/></g><rect class="cls-16" x="234.01" y="683.13" width="116.11" height="111.99" rx="7.74"/><rect class="cls-17" x="243.76" y="738.26" width="96.63" height="49.82" rx="6.44"/><rect class="cls-18" x="148.06" y="567.56" width="267.94" height="100.23"/><rect class="cls-16" x="139.71" y="803.28" width="276.29" height="12.37"/><rect class="cls-12" x="139.71" y="455.29" width="276.29" height="106.09"/><rect class="cls-13" x="139.71" y="560.37" width="276.29" height="12.37"/><rect class="cls-13" x="139.71" y="442.92" width="276.29" height="12.37"/><circle class="cls-19" cx="265.04" cy="701.61" r="9.57"/><path class="cls-20" d="M265,692c-.27,0-.54,0-.8,0v19.07c.26,0,.53,0,.8,0s.55,0,.81,0V692.07C265.59,692.05,265.32,692,265,692Z"/><circle class="cls-19" cx="292.07" cy="701.61" r="9.57"/><path class="cls-20" d="M299.09,708.1,286.25,694a9.52,9.52,0,0,0-1.2,1.09l12.84,14.08A9.52,9.52,0,0,0,299.09,708.1Z"/><circle class="cls-19" cx="319.1" cy="701.61" r="9.57"/><path class="cls-20" d="M319.1,692c-.28,0-.54,0-.81,0v19.07c.27,0,.53,0,.81,0s.54,0,.8,0V692.07C319.64,692.05,319.37,692,319.1,692Z"/><rect class="cls-21" x="239.28" y="717.29" width="105.57" height="5.36" rx="2.68"/><rect class="cls-22" x="234.01" y="729.75" width="116.11" height="1.02"/><circle class="cls-23" cx="166.34" cy="340.74" r="43.14"/><circle class="cls-24" cx="166.34" cy="340.74" r="35.62"/><circle class="cls-25" cx="166.34" cy="312.28" r="2.68"/><circle class="cls-25" cx="166.34" cy="369.21" r="2.68"/><circle class="cls-25" cx="194.8" cy="340.74" r="2.68"/><circle class="cls-25" cx="166.34" cy="340.74" r="1.79"/><circle class="cls-25" cx="137.87" cy="340.74" r="2.68"/><line class="cls-26" x1="166.34" y1="340.74" x2="152.3" y2="324.67"/><line class="cls-27" x1="162.25" y1="358.58" x2="166.34" y2="340.74"/><polygon class="cls-16" points="416 441.92 131.21 441.92 131.21 454.29 139.72 454.29 416 454.29 416 441.92"/><rect class="cls-24" x="148.06" y="590.98" width="267.94" height="1"/><rect class="cls-24" x="148.06" y="608.76" width="267.94" height="1"/><rect class="cls-24" x="148.06" y="626.54" width="267.94" height="1"/><rect class="cls-24" x="148.06" y="644.32" width="267.94" height="1"/><rect class="cls-24" x="396.36" y="573.69" width="1" height="88.91"/><rect class="cls-24" x="377.22" y="573.69" width="1" height="88.91"/><rect class="cls-24" x="358.09" y="573.69" width="1" height="88.91"/><rect class="cls-24" x="338.95" y="573.69" width="1" height="88.91"/><rect class="cls-24" x="319.81" y="573.69" width="1" height="88.91"/><rect class="cls-24" x="300.67" y="573.69" width="1" height="88.91"/><rect class="cls-24" x="281.53" y="573.69" width="1" height="88.91"/><rect class="cls-24" x="262.39" y="573.69" width="1" height="88.91"/><rect class="cls-24" x="243.25" y="573.69" width="1" height="88.91"/><rect class="cls-24" x="224.12" y="573.69" width="1" height="88.91"/><rect class="cls-24" x="204.98" y="573.69" width="1" height="88.91"/><rect class="cls-24" x="185.84" y="573.69" width="1" height="88.91"/><rect class="cls-24" x="166.7" y="573.69" width="1" height="88.91"/><rect class="cls-21" x="204.99" y="656.48" width="58.05" height="6.13" rx="2.13"/><rect class="cls-21" x="320.1" y="656.48" width="58.05" height="6.13" rx="2.13"/><path class="cls-28" d="M326.5,640.66h0l-.34-.14a3.76,3.76,0,0,0-1.22-.2,3.8,3.8,0,0,0-1.46,7.31h0l9.06,4,.75-7.49v-.27Z"/><path class="cls-28" d="M337.25,635.79c0-.09,0-.19,0-.28,0-8,5.73-14.44,12.79-14.44s12.78,6.46,12.78,14.44v0a20.9,20.9,0,0,1,2.94,2.78,20,20,0,0,0,.21-2.81c0-9.7-7.15-17.58-15.93-17.58s-15.93,7.88-15.93,17.58a18.86,18.86,0,0,0,.26,3.12A21,21,0,0,1,337.25,635.79Z"/><circle class="cls-29" cx="350.19" cy="630.43" r="1.98"/><path class="cls-29" d="M323.23,645.06a3.8,3.8,0,0,1,3.8-3.8,3.67,3.67,0,0,1,1.1.17l-1.63-.77h0l-.34-.14a3.76,3.76,0,0,0-1.22-.2,3.8,3.8,0,0,0-1.46,7.31h0l1.73.76A3.81,3.81,0,0,1,323.23,645.06Z"/><path class="cls-30" d="M350.19,631.23a20.65,20.65,0,0,0-20.65,20.65,21.12,21.12,0,0,0,.52,4.6h40.26a21.12,21.12,0,0,0,.52-4.6A20.65,20.65,0,0,0,350.19,631.23Z"/><polygon class="cls-16" points="416 662.61 131.21 662.61 131.21 674.97 139.72 674.97 416 674.97 416 662.61"/><polygon class="cls-8" points="146.74 572.74 146.74 586.01 138.7 586.01 138.7 662.61 185.84 662.61 185.84 590.98 397.36 590.98 397.36 662.61 416 662.61 416 590.98 416 584.14 416 572.74 146.74 572.74"/><polygon class="cls-16" points="416 561.38 131.21 561.38 131.21 573.74 139.72 573.74 416 573.74 416 561.38"/><rect class="cls-13" x="276.88" y="454.48" width="1.96" height="106.36"/><circle class="cls-16" cx="290.97" cy="540.63" r="5.38"/><circle class="cls-16" cx="264.75" cy="540.63" r="5.38"/></g></g></svg>