<svg id="Layer_1" data-name="Layer 1" xmlns="http://www.w3.org/2000/svg" xmlns:xlink="http://www.w3.org/1999/xlink" width="179.21mm" height="307.01mm" viewBox="0 0 508 870.26"><defs><style>.cls-1,.cls-7{fill:none;}.cls-2{fill:#2f2224;}.cls-3{fill:#48393c;}.cls-4{fill:#615658;}.cls-5{fill:#cb7571;}.cls-6{fill:#e2f1e5;}.cls-7{stroke:#615658;stroke-linecap:round;stroke-miterlimit:10;stroke-width:9px;}.cls-8{fill:#f8cf71;}.cls-9{fill:#f6be4f;}.cls-10{fill:#885b52;}.cls-11{fill:#9c6b5e;}.cls-12{fill:#b5816f;}.cls-13{fill:#aa786b;}.cls-14{fill:#764b44;}.cls-15{fill:#885b54;}.cls-16{fill:#cfe9d6;}.cls-17{fill:#e6c38a;}.cls-18{fill:#725431;}.cls-19{fill:#a07f50;}.cls-20{clip-path:url(#clip-path);}.cls-21{fill:#fbea8a;}.cls-22{fill:#fef8e2;}.cls-23{fill:#565350;}.cls-24{fill:#3b3933;}.cls-25{fill:#fff;}.cls-26{fill:#bd3a27;}.cls-27{fill:#302e26;}.cls-28{fill:#5d5a5a;}.cls-29{clip-path:url(#clip-path-2);}.cls-30{fill:#87201a;}.cls-31{fill:#879da3;}.cls-32{fill:#f8ac22;}.cls-33{fill:#d8d8d8;}.cls-34{clip-path:url(#clip-path-3);}</style><clipPath id="clip-path"><rect class="cls-1" x="92" y="465.64" width="286.26" height="396.36"/></clipPath><clipPath id="clip-path-2"><rect class="cls-1" x="334.51" y="588.21" width="81.49" height="226.72"/></clipPath><clipPath id="clip-path-3"><rect class="cls-1" x="92" y="317.53" width="324" height="210.38"/></clipPath></defs><title>Imagery</title><rect class="cls-2" x="13.5" y="14" width="481" height="852"/><rect class="cls-3" width="508" height="18"/><rect class="cls-3" x="14" y="114" width="481" height="89"/><rect class="cls-3" y="105" width="508" height="18"/><rect class="cls-4" x="5.75" y="123" width="496.5" height="8"/><rect class="cls-4" x="5.75" y="199" width="496.5" height="8"/><rect class="cls-3" x="13.5" y="794" width="481" height="72"/><rect class="cls-4" x="5.75" y="790" width="496.5" height="8"/><rect class="cls-4" x="5.75" y="862" width="496.5" height="8"/><rect class="cls-5" x="77" y="123" width="354" height="747"/><rect class="cls-6" x="89.5" y="134" width="329" height="60"/><rect class="cls-2" x="21.5" y="143.5" width="48" height="43" transform="translate(210.5 119.5) rotate(90)"/><rect class="cls-2" x="438.5" y="143.5" width="48" height="43" transform="translate(627.5 -297.5) rotate(90)"/><rect class="cls-2" x="21.5" y="808.5" width="48" height="43" transform="translate(875.5 784.5) rotate(90)"/><rect class="cls-2" x="438.5" y="808.5" width="48" height="43" transform="translate(1292.5 367.5) rotate(90)"/><line class="cls-7" x1="32.5" y1="29.5" x2="32.5" y2="92.5"/><line class="cls-7" x1="72.77" y1="29.5" x2="72.77" y2="92.5"/><line class="cls-7" x1="113.05" y1="29.5" x2="113.05" y2="92.5"/><line class="cls-7" x1="153.32" y1="29.5" x2="153.32" y2="92.5"/><line class="cls-7" x1="193.59" y1="29.5" x2="193.59" y2="92.5"/><line class="cls-7" x1="233.86" y1="29.5" x2="233.86" y2="92.5"/><line class="cls-7" x1="274.14" y1="29.5" x2="274.14" y2="92.5"/><line class="cls-7" x1="314.41" y1="29.5" x2="314.41" y2="92.5"/><line class="cls-7" x1="354.68" y1="29.5" x2="354.68" y2="92.5"/><line class="cls-7" x1="394.95" y1="29.5" x2="394.95" y2="92.5"/><line class="cls-7" x1="435.23" y1="29.5" x2="435.23" y2="92.5"/><line class="cls-7" x1="475.5" y1="29.5" x2="475.5" y2="92.5"/><rect class="cls-8" x="92" y="217" width="324" height="653"/><polygon class="cls-9" points="373.87 788 416 789.43 416 217 92 217 92 256.29 364 281 373.87 788"/><rect class="cls-10" x="92" y="773" width="324" height="18"/><rect class="cls-11" x="92" y="779" width="324" height="22"/><rect class="cls-12" x="92" y="801" width="324" height="69"/><polygon class="cls-13" points="416 870 416 791 381.39 791 382.55 801 416 870"/><polygon class="cls-14" points="416 773 373.31 773 380 779 381.86 795 416 795 416 773"/><polygon class="cls-15" points="416 779 380 779 382.55 801 416 801 416 779"/><rect class="cls-16" x="92" y="217" width="324" height="653"/><rect class="cls-17" x="92" y="780.25" width="324" height="89.75"/><rect class="cls-18" x="92" y="771.02" width="324" height="5.93"/><rect class="cls-19" x="92" y="773" width="324" height="7.25"/><g class="cls-20"><ellipse class="cls-21" cx="144.51" cy="824.08" rx="225.19" ry="26.43"/><ellipse class="cls-22" cx="169.65" cy="823.08" rx="176.76" ry="18.18"/><rect class="cls-23" x="-53.69" y="613.85" width="344.57" height="65.15"/><rect class="cls-24" x="-53.69" y="621.78" width="344.57" height="62.08"/><path class="cls-25" d="M284.85,683.86a38.44,38.44,0,0,0-38.32-38.32H160.84a38.43,38.43,0,0,0-38.32,38.32H284.85Z"/><path class="cls-25" d="M115.28,683.86A38.44,38.44,0,0,0,77,645.54H-8.73A38.43,38.43,0,0,0-47,683.86H115.28Z"/><rect class="cls-26" x="-78.43" y="683.86" width="397.68" height="75.43" rx="18.91"/><rect class="cls-27" x="-95.93" y="726.26" width="432.68" height="69.25"/><rect class="cls-28" x="-89.29" y="726.26" width="417.59" height="54.31"/><rect class="cls-24" x="-89.29" y="733.35" width="417.59" height="54.31"/><rect class="cls-24" x="299.63" y="792.48" width="24.74" height="30.17"/><rect class="cls-27" x="299.63" y="792.48" width="24.74" height="15.09"/></g><g class="cls-29"><rect class="cls-24" x="363.37" y="668.79" width="81.42" height="7.77"/><rect class="cls-24" x="363.37" y="791.58" width="81.42" height="7.77"/><rect class="cls-26" x="367.6" y="676.57" width="72.96" height="57.49"/><rect class="cls-30" x="367.6" y="734.09" width="72.96" height="57.49"/><circle class="cls-25" cx="404.08" cy="705.31" r="4.34"/><rect class="cls-25" x="393.86" y="760.55" width="20.44" height="4.57"/><rect class="cls-31" x="401.91" y="633.2" width="4.34" height="32.83"/><rect class="cls-25" x="387.22" y="664.3" width="33.71" height="4.5" rx="1.25"/><rect class="cls-32" x="381.37" y="613.49" width="45.43" height="30.9"/></g><rect class="cls-32" x="181.9" y="338.86" width="144.2" height="181.55" transform="translate(508 859.26) rotate(180)"/><rect class="cls-25" x="190.41" y="347.36" width="127.19" height="164.54" transform="translate(508 859.26) rotate(180)"/><rect class="cls-33" x="198.91" y="355.86" width="110.18" height="147.54" transform="translate(508 859.26) rotate(180)"/><g class="cls-34"><rect class="cls-32" x="72.85" y="383.9" width="76.65" height="105.55"/><rect class="cls-25" x="65.73" y="405.68" width="90.9" height="62" transform="translate(547.85 325.5) rotate(90)"/><rect class="cls-33" x="73.05" y="413" width="76.25" height="47.35" transform="translate(547.85 325.5) rotate(90)"/><rect class="cls-32" x="357.76" y="383.9" width="76.65" height="105.55"/><rect class="cls-25" x="350.64" y="405.68" width="90.9" height="62" transform="translate(832.76 40.59) rotate(90)"/><rect class="cls-33" x="357.96" y="413" width="76.25" height="47.35" transform="translate(832.76 40.59) rotate(90)"/></g></svg>