<svg xmlns="http://www.w3.org/2000/svg" width="179.21mm" height="307.01mm" viewBox="0 0 508 870.26"><defs><style>.cls-1{isolation:isolate;}.cls-2{fill:#2f2224;}.cls-3{fill:#48393c;}.cls-4{fill:#615658;}.cls-5{fill:#7b5f89;}.cls-6{fill:#e5f5f8;}.cls-7{fill:none;stroke:#615658;stroke-linecap:round;stroke-miterlimit:10;stroke-width:9px;}.cls-8{fill:#c8e8eb;}.cls-9{fill:#00855c;}.cls-10{fill:#4b9e45;}.cls-11{fill:#5fb250;}.cls-12{fill:#87c178;}.cls-13{fill:#fff;}.cls-14,.cls-15{fill:#634c31;}.cls-14{opacity:0.21;}.cls-14,.cls-18{mix-blend-mode:multiply;}.cls-16{fill:#00865d;}.cls-17{fill:#077753;}.cls-18{opacity:0.35;}</style></defs><title>Imagery</title><g class="cls-1"><g id="Layer_1" data-name="Layer 1"><rect class="cls-2" x="13.5" y="14" width="481" height="852"/><rect class="cls-3" width="508" height="18"/><rect class="cls-3" x="14" y="114" width="481" height="89"/><rect class="cls-3" y="105" width="508" height="18"/><rect class="cls-4" x="5.75" y="123" width="496.5" height="8"/><rect class="cls-4" x="5.75" y="199" width="496.5" height="8"/><rect class="cls-3" x="13.5" y="794" width="481" height="72"/><rect class="cls-4" x="5.75" y="790" width="496.5" height="8"/><rect class="cls-4" x="5.75" y="862" width="496.5" height="8"/><rect class="cls-5" x="77" y="123" width="354" height="747"/><rect class="cls-6" x="89.5" y="134" width="329" height="60"/><rect class="cls-2" x="21.5" y="143.5" width="48" height="43" transform="translate(210.5 119.5) rotate(90)"/><rect class="cls-2" x="438.5" y="143.5" width="48" height="43" transform="translate(627.5 -297.5) rotate(90)"/><rect class="cls-2" x="21.5" y="808.5" width="48" height="43" transform="translate(875.5 784.5) rotate(90)"/><rect class="cls-2" x="438.5" y="808.5" width="48" height="43" transform="translate(1292.5 367.5) rotate(90)"/><line class="cls-7" x1="32.5" y1="29.5" x2="32.5" y2="92.5"/><line class="cls-7" x1="72.77" y1="29.5" x2="72.77" y2="92.5"/><line class="cls-7" x1="113.05" y1="29.5" x2="113.05" y2="92.5"/><line class="cls-7" x1="153.32" y1="29.5" x2="153.32" y2="92.5"/><line class="cls-7" x1="193.59" y1="29.5" x2="193.59" y2="92.5"/><line class="cls-7" x1="233.86" y1="29.5" x2="233.86" y2="92.5"/><line class="cls-7" x1="274.14" y1="29.5" x2="274.14" y2="92.5"/><line class="cls-7" x1="314.41" y1="29.5" x2="314.41" y2="92.5"/><line class="cls-7" x1="354.68" y1="29.5" x2="354.68" y2="92.5"/><line class="cls-7" x1="394.95" y1="29.5" x2="394.95" y2="92.5"/><line class="cls-7" x1="435.23" y1="29.5" x2="435.23" y2="92.5"/><line class="cls-7" x1="475.5" y1="29.5" x2="475.5" y2="92.5"/><rect class="cls-8" x="92" y="217" width="324" height="653"/><path class="cls-9" d="M416,870V517.3c-25.72,2-55.09,4.06-87.62,6.19-103,6.72-192,58.93-236.38,88.37V870Z"/><path class="cls-10" d="M416,870V411.49c-56.75-43.26-135.75-91.14-208.64-79.66-54,8.5-92.21,36.74-115.36,60V870Z"/><path class="cls-11" d="M416,870V517.3c-25.72,2-55.09,4.06-87.62,6.19-103,6.72-192,58.93-236.38,88.37V870Z"/><path class="cls-12" d="M92,870V676.12c25.72,2,55.09,4.07,87.62,6.19,103,6.73,192,58.93,236.38,88.37V870Z"/><path class="cls-13" d="M121.36,293c0-4.28,6.11-7.75,13.65-7.75a22.32,22.32,0,0,1,5.63.69,5.34,5.34,0,0,1,0-.69c0-4,5.45-7.37,12.4-7.73,1.32-5.39,7.48-9.47,14.88-9.47,8.37,0,15.15,5.2,15.15,11.63a9,9,0,0,1-.26,2.14c9.92,2.93,9.28,15.38,3.44,15.88-.4,2.42-1.86,5.42-6.69,5.42H128.58S115.83,301.8,121.36,293Z"/><ellipse class="cls-14" cx="187.45" cy="507.83" rx="12.31" ry="4.25"/><rect class="cls-15" x="180.78" y="463.03" width="13.36" height="44.75"/><path class="cls-16" d="M175.14,400.79l-9.48,33-2.74,9.54,0,.28c0,.54-.06,1.08-.06,1.62a24.62,24.62,0,0,0,24.62,24.62V358Z"/><path class="cls-17" d="M212.07,445.21q0-.81-.06-1.62a2.46,2.46,0,0,0,0-.28l-2.74-9.54-9.49-33L187.45,358V469.83A24.62,24.62,0,0,0,212.07,445.21Z"/><ellipse class="cls-14" cx="137.14" cy="369.73" rx="6.44" ry="2.23"/><rect class="cls-15" x="133.64" y="346.27" width="6.99" height="23.43"/><path class="cls-16" d="M130.69,313.68l-5,17.27-1.44,5c0,.05,0,.1,0,.14,0,.29,0,.57,0,.86a12.9,12.9,0,0,0,12.89,12.89V291.28Z"/><path class="cls-17" d="M150,337c0-.29,0-.57,0-.86,0,0,0-.09,0-.14l-1.43-5-5-17.27-6.44-22.4v58.56A12.9,12.9,0,0,0,150,337Z"/><ellipse class="cls-14" cx="160.94" cy="823.37" rx="18.35" ry="6.34"/><rect class="cls-15" x="150.98" y="756.6" width="19.91" height="66.69"/><path class="cls-16" d="M142.59,663.84,128.46,713l-4.09,14.22,0,.42c-.06.8-.09,1.61-.09,2.42a36.68,36.68,0,0,0,36.69,36.69V600.05Z"/><path class="cls-17" d="M197.63,730.05c0-.81,0-1.62-.09-2.42l0-.42L193.42,713l-14.14-49.15-18.34-63.79V766.74A36.69,36.69,0,0,0,197.63,730.05Z"/><ellipse class="cls-14" cx="227.92" cy="709.55" rx="9.17" ry="3.17"/><rect class="cls-15" x="222.95" y="676.16" width="9.95" height="33.35"/><path class="cls-16" d="M218.75,629.79l-7.07,24.57-2,7.11c0,.07,0,.14,0,.21,0,.4,0,.8,0,1.21a18.35,18.35,0,0,0,18.34,18.35V597.89Z"/><path class="cls-17" d="M246.27,662.89c0-.41,0-.81,0-1.21,0-.07,0-.14,0-.21l-2-7.11-7.07-24.57-9.18-31.9v83.35A18.35,18.35,0,0,0,246.27,662.89Z"/><ellipse class="cls-14" cx="124.25" cy="597.84" rx="4.59" ry="1.58"/><rect class="cls-15" x="121.76" y="581.15" width="4.98" height="16.67"/><path class="cls-16" d="M119.66,558l-3.53,12.29-1,3.55v.11q0,.3,0,.6a9.18,9.18,0,0,0,9.18,9.18V542Z"/><path class="cls-17" d="M133.42,574.51c0-.2,0-.4,0-.6,0,0,0-.07,0-.11l-1-3.55L128.83,558l-4.58-16v41.68A9.18,9.18,0,0,0,133.42,574.51Z"/><ellipse class="cls-14" cx="397.23" cy="803.89" rx="4.59" ry="1.58"/><rect class="cls-15" x="394.74" y="787.19" width="4.98" height="16.67"/><path class="cls-16" d="M392.64,764l-3.54,12.29-1,3.55a.41.41,0,0,1,0,.11c0,.2,0,.4,0,.61a9.18,9.18,0,0,0,9.18,9.17V748.05Z"/><path class="cls-17" d="M406.4,780.56c0-.21,0-.41,0-.61a.41.41,0,0,1,0-.11l-1-3.55L401.81,764l-4.58-16v41.68A9.18,9.18,0,0,0,406.4,780.56Z"/><ellipse class="cls-14" cx="364.41" cy="659.81" rx="13.02" ry="4.5"/><rect class="cls-15" x="357.34" y="612.41" width="14.13" height="47.33"/><path class="cls-16" d="M351.39,546.57l-10,34.89-2.91,10.09c0,.1,0,.2,0,.3,0,.57-.06,1.14-.06,1.72a26,26,0,0,0,26,26V501.3Z"/><path class="cls-17" d="M390.45,593.57c0-.58,0-1.15-.06-1.72,0-.1,0-.2,0-.3l-2.91-10.09-10-34.89-13-45.27V619.61A26,26,0,0,0,390.45,593.57Z"/><ellipse class="cls-14" cx="361.93" cy="430.84" rx="13.06" ry="4.51"/><rect class="cls-15" x="354.84" y="383.3" width="14.18" height="47.49"/><path class="cls-16" d="M348.86,317.25l-10.06,35-2.91,10.13,0,.3c0,.57-.06,1.14-.06,1.72a26.13,26.13,0,0,0,26.13,26.13V271.83Z"/><path class="cls-17" d="M388.05,364.39c0-.58,0-1.15-.06-1.72,0-.1,0-.2,0-.3l-2.92-10.13-10.06-35-13.06-45.42V390.52A26.12,26.12,0,0,0,388.05,364.39Z"/><g class="cls-18"><path class="cls-17" d="M278.76,702.31,232.9,870H349.19l1.92-137.31A526,526,0,0,0,278.76,702.31Z"/></g><g class="cls-18"><path class="cls-17" d="M269.66,639.56c-5.11,13,20.91,66.83,20.91,66.83l3.07,1.12a532.14,532.14,0,0,1,50.75,21.82c-.06-.24-24.69-56.44-26.73-85.38-1.35-24.34,19.4-74.55,18.14-83.49-.87-6.19-17-24.47-26.92-35.15a391.08,391.08,0,0,0-47.14,8.75c10.4,12.93,28,35.08,31.9,41.47C292,583.69,274.77,626.59,269.66,639.56Z"/></g><g class="cls-18"><path class="cls-17" d="M246.27,383.3c2,4.76,18.79,30.68,15.47,43-2.61,9.71-51.16,95.73-71.8,132.07a481.64,481.64,0,0,1,60.87-21.48c12.7-21.68,52.26-90.51,52.26-106.14-2.94-23.74-28.3-45.72-14-58s34.28-19.12,34.28-19.12q-10.51-4.89-21.25-9c-14.9,2.35-33.35,5.78-40.35,9.21C249.23,360,240.55,369.73,246.27,383.3Z"/></g><path class="cls-13" d="M396.39,248.82c0-6.32-9-11.45-20.13-11.45a33.12,33.12,0,0,0-8.31,1,7,7,0,0,0,.08-1c0-6-8-10.86-18.3-11.39a16.35,16.35,0,0,0-6.2-9H312c-4.07,3.11-6.59,7.41-6.59,12.17a13.32,13.32,0,0,0,.39,3.15,20.75,20.75,0,0,0-9.88-2.41c-9.48,0-17.17,5.9-17.17,13.19s7.69,13.18,17.17,13.18a21.4,21.4,0,0,0,4.8-.53c.59,3.58,2.76,8,9.88,8h75.13S404.56,261.75,396.39,248.82Z"/></g></g></svg>