<svg id="Layer_1" data-name="Layer 1" xmlns="http://www.w3.org/2000/svg" width="179.21mm" height="307.01mm" viewBox="0 0 508 870.26"><defs><style>.cls-1{fill:#2f2224;}.cls-2{fill:#48393c;}.cls-3{fill:#615658;}.cls-4{fill:none;stroke:#615658;stroke-linecap:round;stroke-miterlimit:10;stroke-width:9px;}.cls-5{fill:#f8cf71;}.cls-6{fill:#f6be4f;}.cls-7{fill:#885b52;}.cls-8{fill:#9c6b5e;}.cls-9{fill:#b5816f;}.cls-10{fill:#aa786b;}.cls-11{fill:#764b44;}.cls-12{fill:#885b54;}.cls-13{fill:#278a43;}.cls-14{fill:#fce5a7;}.cls-15{fill:#7dc35f;}.cls-16{fill:#f4b22d;}.cls-17{fill:#c9dfbd;}</style></defs><title>Imagery</title><rect class="cls-1" x="13.5" y="14" width="481" height="852"/><rect class="cls-2" width="508" height="18"/><rect class="cls-2" x="14" y="114" width="481" height="89"/><rect class="cls-2" y="105" width="508" height="18"/><rect class="cls-3" x="5.75" y="123" width="496.5" height="8"/><rect class="cls-3" x="5.75" y="199" width="496.5" height="8"/><rect class="cls-2" x="13.5" y="794" width="481" height="72"/><rect class="cls-3" x="5.75" y="790" width="496.5" height="8"/><rect class="cls-3" x="5.75" y="862" width="496.5" height="8"/><rect class="cls-1" x="21.5" y="143.5" width="48" height="43" transform="translate(210.5 119.5) rotate(90)"/><rect class="cls-1" x="438.5" y="143.5" width="48" height="43" transform="translate(627.5 -297.5) rotate(90)"/><rect class="cls-1" x="21.5" y="808.5" width="48" height="43" transform="translate(875.5 784.5) rotate(90)"/><rect class="cls-1" x="438.5" y="808.5" width="48" height="43" transform="translate(1292.5 367.5) rotate(90)"/><line class="cls-4" x1="32.5" y1="29.5" x2="32.5" y2="92.5"/><line class="cls-4" x1="72.77" y1="29.5" x2="72.77" y2="92.5"/><line class="cls-4" x1="113.05" y1="29.5" x2="113.05" y2="92.5"/><line class="cls-4" x1="153.32" y1="29.5" x2="153.32" y2="92.5"/><line class="cls-4" x1="193.59" y1="29.5" x2="193.59" y2="92.5"/><line class="cls-4" x1="233.86" y1="29.5" x2="233.86" y2="92.5"/><line class="cls-4" x1="274.14" y1="29.5" x2="274.14" y2="92.5"/><line class="cls-4" x1="314.41" y1="29.5" x2="314.41" y2="92.5"/><line class="cls-4" x1="354.68" y1="29.5" x2="354.68" y2="92.5"/><line class="cls-4" x1="394.95" y1="29.5" x2="394.95" y2="92.5"/><line class="cls-4" x1="435.23" y1="29.5" x2="435.23" y2="92.5"/><line class="cls-4" x1="475.5" y1="29.5" x2="475.5" y2="92.5"/><rect class="cls-5" x="92" y="217" width="324" height="653"/><polygon class="cls-6" points="373.87 788 416 789.43 416 217 92 217 92 256.29 364 281 373.87 788"/><rect class="cls-7" x="92" y="773" width="324" height="18"/><rect class="cls-8" x="92" y="779" width="324" height="22"/><rect class="cls-9" x="92" y="801" width="324" height="69"/><polygon class="cls-10" points="416 870 416 791 381.39 791 382.55 801 416 870"/><polygon class="cls-11" points="416 773 373.31 773 380 779 381.86 795 416 795 416 773"/><polygon class="cls-12" points="416 779 380 779 382.55 801 416 801 416 779"/><rect class="cls-13" x="77" y="123" width="354" height="747"/><rect class="cls-14" x="89.5" y="134" width="329" height="60"/><rect class="cls-15" x="92" y="217" width="158.5" height="653"/><rect class="cls-15" x="257.5" y="217" width="158.5" height="653"/><circle class="cls-16" cx="238" cy="616.5" r="8.5"/><circle class="cls-16" cx="270" cy="616.5" r="8.5"/><path class="cls-17" d="M212.37,248.05v94.24H118.13V248.05h94.24m6-6H112.13V348.29H218.37V242.05Z"/><rect class="cls-14" x="128.13" y="258.05" width="74.25" height="74.24" transform="translate(460.42 129.92) rotate(90)"/><path class="cls-17" d="M212.37,395.84V694H118.13V395.84h94.24m6-6H112.13V700H218.37V389.84Z"/><rect class="cls-14" x="26.19" y="507.77" width="278.12" height="74.24" transform="translate(710.15 379.65) rotate(90)"/><path class="cls-17" d="M212.37,747.5v94.24H118.13V747.5h94.24m6-6H112.13V847.74H218.37V741.5Z"/><rect class="cls-14" x="128.13" y="757.5" width="74.24" height="74.24" transform="translate(959.87 629.37) rotate(90)"/><path class="cls-17" d="M389.87,248.05v94.24H295.63V248.05h94.24m6-6H289.63V348.29H395.87V242.05Z"/><rect class="cls-14" x="305.63" y="258.05" width="74.25" height="74.24" transform="translate(637.92 -47.58) rotate(90)"/><path class="cls-17" d="M389.87,395.84V694H295.63V395.84h94.24m6-6H289.63V700H395.87V389.84Z"/><rect class="cls-14" x="203.69" y="507.77" width="278.12" height="74.24" transform="translate(887.65 202.15) rotate(90)"/><path class="cls-17" d="M389.87,747.5v94.24H295.63V747.5h94.24m6-6H289.63V847.74H395.87V741.5Z"/><rect class="cls-14" x="305.63" y="757.5" width="74.24" height="74.24" transform="translate(1137.37 451.87) rotate(90)"/></svg>